<?xml version="1.0" standalone="no"?>
<!DOCTYPE svg PUBLIC "-//W3C//DTD SVG 20010904//EN"
 "http://www.w3.org/TR/2001/REC-SVG-20010904/DTD/svg10.dtd">
<svg version="1.0" xmlns="http://www.w3.org/2000/svg"
 width="512.000000wh" height="512.000000wh" viewBox="0 0 512.000000 512.000000"
 preserveAspectRatio="xMidYMid meet">

<g transform="translate(0.000000,512.000000) scale(0.100000,-0.100000)"
fill="#ffffff" stroke="none">
<path d="M512 5105 c-115 -25 -207 -78 -303 -174 -93 -93 -142 -171 -181 -286
l-23 -70 -3 -1997 c-3 -2231 -8 -2072 69 -2228 82 -165 252 -297 434 -335 60
-13 349 -15 2036 -15 1369 0 1983 3 2025 11 260 47 488 262 539 508 13 62 15
335 13 2079 l-3 2007 -27 73 c-38 105 -83 176 -158 252 -76 75 -147 120 -252
158 l-73 27 -2015 2 c-1674 1 -2026 -1 -2078 -12z m4098 -336 c70 -33 126 -89
159 -159 l26 -55 0 -1990 0 -1990 -28 -56 c-33 -69 -99 -132 -175 -167 l-57
-27 -1977 -3 -1977 -2 -58 21 c-78 30 -152 104 -182 182 l-21 58 2 1977 3
1977 28 60 c30 64 93 137 142 162 80 43 17 42 2085 40 l1975 -2 55 -26z"/>
<path d="M1215 3826 c-67 -29 -105 -106 -91 -181 9 -47 59 -102 104 -115 26
-8 449 -10 1354 -8 1312 3 1317 3 1344 24 53 39 69 71 69 134 0 63 -16 95 -69
134 -27 21 -31 21 -1354 23 -1088 2 -1332 0 -1357 -11z"/>
<path d="M1215 2866 c-67 -29 -105 -106 -91 -181 9 -47 59 -102 104 -115 26
-8 449 -10 1354 -8 1312 3 1317 3 1344 24 53 39 69 71 69 134 0 63 -16 95 -69
134 -27 21 -31 21 -1354 23 -1088 2 -1332 0 -1357 -11z"/>
<path d="M1215 1906 c-67 -29 -105 -106 -91 -181 9 -47 59 -102 104 -115 26
-8 449 -10 1354 -8 1312 3 1317 3 1344 24 53 39 69 71 69 134 0 63 -16 95 -69
134 -27 21 -31 21 -1354 23 -1088 2 -1332 0 -1357 -11z"/>
</g>
</svg>
